<?xml version="1.0" standalone="no"?>
<!DOCTYPE svg PUBLIC "-//W3C//DTD SVG 20010904//EN"
 "http://www.w3.org/TR/2001/REC-SVG-20010904/DTD/svg10.dtd">
<svg version="1.0" xmlns="http://www.w3.org/2000/svg"
 width="128.000000pt" height="21.000000pt" viewBox="0 0 128.000000 21.000000"
 preserveAspectRatio="xMidYMid meet">
<metadata>
Created by potrace 1.16, written by Peter Selinger 2001-2019
</metadata>
<g transform="translate(0.000000,21.000000) scale(0.100000,-0.100000)"
fill="#000000" stroke="none">
<path d="M0 125 c0 -84 0 -85 25 -85 16 0 25 6 25 15 0 9 9 15 25 15 22 0 25
-4 25 -35 0 -32 2 -35 30 -35 28 0 30 3 30 37 0 34 1 35 18 20 26 -24 122 -24
122 0 0 15 1 15 18 0 15 -14 40 -17 125 -17 102 0 106 1 126 26 16 20 21 22
21 10 0 -9 15 -24 34 -32 31 -15 37 -15 65 -1 17 8 31 11 31 6 0 -5 14 -9 30
-9 23 0 30 4 30 20 0 11 5 20 10 20 6 0 10 -9 10 -20 0 -15 7 -20 25 -20 24 0
26 3 25 43 -1 23 0 53 2 67 2 19 -2 26 -19 28 -17 3 -26 -4 -35 -25 l-12 -28
-4 42 -3 42 -50 -1 c-43 0 -50 -3 -46 -17 3 -14 -1 -16 -24 -13 -20 3 -35 -3
-53 -21 -18 -18 -26 -21 -30 -11 -3 7 -23 18 -45 25 -23 7 -41 18 -41 26 0 7
-11 13 -25 13 -16 0 -25 -6 -25 -15 0 -11 -11 -15 -42 -15 -24 0 -55 -7 -70
-14 -24 -13 -28 -13 -28 0 0 20 -72 19 -112 -2 -16 -9 -27 -11 -24 -5 4 6 -2
19 -14 31 -16 16 -33 20 -85 20 l-65 0 0 -85z"/>
<path d="M1155 159 c-44 -5 -89 -10 -99 -13 -11 -3 -26 0 -33 6 -16 13 -126 1
-118 -13 4 -5 25 -9 48 -9 l41 0 -52 -26 c-60 -30 -69 -54 -19 -54 18 0 39 6
46 13 10 10 11 9 6 -6 -11 -28 51 -22 87 9 17 14 37 23 45 20 8 -3 12 -2 9 3
-3 5 19 18 50 30 62 23 78 26 69 11 -4 -6 5 -10 19 -10 21 0 26 5 26 25 0 28
5 28 -125 14z"/>
</g>
</svg>
