<?xml version="1.0" standalone="no"?>
<!DOCTYPE svg PUBLIC "-//W3C//DTD SVG 20010904//EN"
 "http://www.w3.org/TR/2001/REC-SVG-20010904/DTD/svg10.dtd">
<svg version="1.0" xmlns="http://www.w3.org/2000/svg"
 width="128.000000pt" height="21.000000pt" viewBox="0 0 128.000000 21.000000"
 preserveAspectRatio="xMidYMid meet">
<metadata>
Created by potrace 1.16, written by Peter Selinger 2001-2019
</metadata>
<g transform="translate(0.000000,21.000000) scale(0.100000,-0.100000)"
fill="#000000" stroke="none">
<path d="M282 182 c4 -26 2 -27 -32 -24 -37 2 -59 -10 -78 -43 -10 -18 -11
-17 -12 11 l0 32 -57 1 c-72 0 -103 -23 -103 -79 0 -56 31 -79 103 -79 l57 1
1 37 c0 20 3 29 6 21 16 -43 45 -60 105 -59 l58 1 0 104 0 104 -26 0 c-23 0
-26 -3 -22 -28z"/>
<path d="M340 105 l0 -105 25 0 c21 0 25 5 26 33 0 17 3 25 6 17 12 -33 47
-50 106 -50 l57 0 0 33 c1 29 2 30 12 12 20 -35 41 -44 101 -43 51 0 57 2 57
21 0 21 0 21 16 -1 20 -28 83 -31 107 -4 22 24 22 58 0 71 -17 10 -17 10 0 11
23 0 22 15 -3 40 -28 28 -84 27 -104 -2 -16 -22 -16 -22 -16 -1 0 19 -6 21
-56 22 -64 0 -91 -11 -104 -42 -7 -17 -9 -8 -9 36 -1 54 -2 57 -26 57 -20 0
-25 -5 -25 -25 0 -22 -4 -25 -35 -25 -25 0 -44 -8 -60 -25 l-25 -24 0 49 c0
47 -2 50 -25 50 l-25 0 0 -105z"/>
<path d="M1057 175 c-9 -20 -17 -42 -17 -50 0 -20 -6 -19 -38 5 -15 11 -41 23
-59 26 l-32 6 9 -32 c13 -45 38 -81 61 -87 10 -3 19 -9 19 -13 0 -12 39 -24
80 -26 39 -2 90 14 90 27 0 5 5 9 10 9 26 0 70 63 70 99 0 27 -17 26 -73 -3
l-45 -24 -7 26 c-7 32 -32 72 -43 72 -5 0 -16 -16 -25 -35z"/>
</g>
</svg>
