<?xml version="1.0" standalone="no"?>
<!DOCTYPE svg PUBLIC "-//W3C//DTD SVG 20010904//EN"
 "http://www.w3.org/TR/2001/REC-SVG-20010904/DTD/svg10.dtd">
<svg version="1.0" xmlns="http://www.w3.org/2000/svg"
 width="128.000000pt" height="27.000000pt" viewBox="0 0 128.000000 27.000000"
 preserveAspectRatio="xMidYMid meet">
<metadata>
Created by potrace 1.16, written by Peter Selinger 2001-2019
</metadata>
<g transform="translate(0.000000,27.000000) scale(0.100000,-0.100000)"
fill="#000000" stroke="none">
<path d="M245 256 c-33 -8 -81 -22 -107 -33 -52 -20 -138 -78 -138 -92 0 -5
13 -12 30 -16 26 -6 28 -9 17 -25 -9 -16 -8 -22 8 -34 16 -12 17 -16 6 -30
-24 -28 -4 -29 66 -4 37 14 87 29 110 33 40 6 42 8 37 35 -3 15 -2 30 4 34 5
3 9 -2 8 -11 0 -9 14 -25 33 -37 72 -42 241 -16 241 38 0 36 -52 59 -133 60
l-70 0 49 14 c73 21 332 26 429 9 l80 -15 -103 -1 c-75 -1 -109 -5 -127 -17
-21 -14 -26 -14 -48 0 -23 16 -107 20 -107 5 0 -4 20 -19 45 -33 34 -20 45
-33 45 -51 0 -23 4 -25 45 -25 42 0 45 2 45 28 0 21 9 32 40 50 l40 23 0 -51
0 -50 137 0 137 0 36 35 c32 32 38 34 50 20 11 -13 9 -15 -12 -15 -24 0 -48
-16 -48 -32 0 -4 43 -8 95 -8 70 0 95 3 94 13 -1 6 -26 34 -56 62 -69 62 -107
64 -165 8 l-38 -37 0 37 c0 35 -2 37 -30 37 -17 0 -41 6 -53 14 -12 8 -71 27
-132 42 -98 25 -131 28 -305 31 -139 2 -212 -2 -255 -11z"/>
</g>
</svg>
