<?xml version="1.0" standalone="no"?>
<!DOCTYPE svg PUBLIC "-//W3C//DTD SVG 20010904//EN"
 "http://www.w3.org/TR/2001/REC-SVG-20010904/DTD/svg10.dtd">
<svg version="1.0" xmlns="http://www.w3.org/2000/svg"
 width="128.000000pt" height="25.000000pt" viewBox="0 0 128.000000 25.000000"
 preserveAspectRatio="xMidYMid meet">
<metadata>
Created by potrace 1.16, written by Peter Selinger 2001-2019
</metadata>
<g transform="translate(0.000000,25.000000) scale(0.100000,-0.100000)"
fill="#000000" stroke="none">
<path d="M115 212 c-44 -20 -82 -38 -85 -40 -3 -2 5 -12 18 -22 29 -24 28 -26
-13 -40 -19 -6 -35 -17 -35 -23 1 -15 91 -87 109 -87 16 0 201 80 201 87 0 3
-10 13 -22 23 l-22 17 37 12 c20 7 37 16 37 21 0 19 -96 90 -120 89 -14 0 -61
-17 -105 -37z"/>
<path d="M395 217 c-20 -11 -20 -38 0 -31 10 4 7 -12 -14 -57 -37 -81 -30 -93
48 -85 67 7 76 7 167 0 55 -4 79 -2 103 11 28 14 33 14 47 0 21 -20 107 -20
124 0 12 14 15 14 31 -1 14 -12 30 -15 71 -10 66 7 67 7 160 0 68 -5 81 -4
113 16 24 15 35 29 35 45 0 37 -36 55 -107 55 -35 0 -63 4 -63 10 0 6 -14 10
-30 10 -27 0 -30 2 -20 19 15 29 13 31 -28 31 -28 0 -44 -6 -60 -25 -14 -16
-32 -25 -52 -25 -29 0 -40 13 -20 25 22 13 8 25 -28 25 -26 0 -45 -7 -57 -20
-9 -10 -33 -24 -51 -30 -37 -13 -46 -30 -14 -30 13 0 18 -5 14 -15 -5 -13 -10
-12 -31 5 -19 15 -41 20 -84 20 -71 0 -104 -12 -146 -53 -18 -17 -33 -28 -33
-24 0 4 14 35 30 69 17 34 30 64 30 68 0 9 -118 7 -135 -3z"/>
</g>
</svg>
