<?xml version="1.0" standalone="no"?>
<!DOCTYPE svg PUBLIC "-//W3C//DTD SVG 20010904//EN"
 "http://www.w3.org/TR/2001/REC-SVG-20010904/DTD/svg10.dtd">
<svg version="1.0" xmlns="http://www.w3.org/2000/svg"
 width="128.000000pt" height="15.000000pt" viewBox="0 0 128.000000 15.000000"
 preserveAspectRatio="xMidYMid meet">
<metadata>
Created by potrace 1.16, written by Peter Selinger 2001-2019
</metadata>
<g transform="translate(0.000000,15.000000) scale(0.100000,-0.100000)"
fill="#000000" stroke="none">
<path d="M162 138 c-13 -13 -16 -106 -3 -126 5 -9 26 -12 67 -10 l59 3 0 70 0
70 -55 3 c-34 2 -60 -2 -68 -10z"/>
<path d="M330 75 c0 -73 1 -75 25 -75 24 0 25 3 25 55 0 42 3 55 15 55 12 0
15 -13 15 -55 0 -52 1 -55 25 -55 26 0 26 1 23 73 l-3 72 -62 3 -63 3 0 -76z"/>
<path d="M672 138 c-12 -12 -16 -95 -6 -122 5 -12 21 -16 65 -16 52 0 59 2 59
19 0 16 -8 21 -42 24 l-43 4 43 1 c35 2 42 5 42 22 0 17 -7 20 -40 20 -22 0
-40 5 -40 10 0 6 18 10 40 10 33 0 40 3 40 20 0 17 -7 20 -53 20 -29 0 -58 -5
-65 -12z"/>
<path d="M830 75 c0 -74 0 -75 26 -75 23 0 26 3 22 25 -7 32 9 32 24 0 7 -16
19 -25 35 -25 26 0 27 3 12 31 -7 15 -7 24 1 34 6 8 10 29 8 47 l-3 33 -62 3
-63 3 0 -76z"/>
<path d="M1000 131 c-22 -43 -6 -71 46 -81 l39 -8 -47 -1 c-41 -1 -48 -4 -48
-21 0 -18 7 -20 59 -20 64 0 85 13 79 51 -3 24 -17 34 -63 46 -29 7 -29 8 13
11 34 2 42 7 42 23 0 16 -7 19 -55 19 -43 0 -56 -4 -65 -19z"/>
<path d="M1172 138 c-12 -12 -16 -95 -6 -122 5 -12 20 -16 60 -16 47 0 54 3
54 19 0 15 -8 21 -37 24 l-38 4 38 1 c30 2 37 6 37 22 0 15 -7 20 -29 20 -17
0 -33 5 -36 10 -4 6 8 10 29 10 29 0 36 4 36 20 0 17 -7 20 -48 20 -26 0 -53
-5 -60 -12z"/>
</g>
</svg>
